<?xml version="1.0" encoding="utf-8"?>
<!-- Generator: Adobe Illustrator 21.1.0, SVG Export Plug-In . SVG Version: 6.00 Build 0)  -->
<svg version="1.1" id="Capa_1" xmlns="http://www.w3.org/2000/svg" xmlns:xlink="http://www.w3.org/1999/xlink" x="0px" y="0px"
	 viewBox="0 0 1200 400" style="enable-background:new 0 0 1200 400;" xml:space="preserve">
<style type="text/css">
	.st0{fill:#FFFFFF;}
</style>
<g>
	<g>
		<path class="st0" d="M176.2,239.1c-16.9,8.2-41.1,15.5-64.1,15.5c-18.2,0-32.5-5.6-40.7-16.5c-4.3-6.1-6.5-15.6-6.5-21.7
			c84.9,2.2,137.4-17.3,137.4-71.5c0-39.4-30.8-63.3-73.7-63.3C51.8,81.7,5,148.8,5,213.4c0,55,31.2,89.3,91.9,89.3
			c19.5,0,47.6-4.1,69.6-12.2L176.2,239.1L176.2,239.1z M143.7,145.4c0,19.1-24.3,26-72.8,25.6c4.3-19.9,20.8-43.8,49.8-43.8
			C135,127.2,143.7,134.5,143.7,145.4z"/>
		<path class="st0" d="M1097,128.9c25.1,0,33.4,20.8,33.4,40.3c0,36.4-19.1,86.3-53.3,86.3c-21.7,0-33.8-16.5-33.8-41.2
			C1042.9,181.4,1061.1,128.9,1097,128.9L1097,128.9z M1105.3,81.7c-75.4,0-126.6,60.2-126.6,133.9c0,52.4,36,87.5,89.7,87.5
			c73.7,0,126.6-56.8,126.6-134.4C1195,120.7,1162.1,81.7,1105.3,81.7z"/>
		<path class="st0" d="M956.5,244.2c-10.8,4.3-23.8,8.7-42,8.7c-23.4,0-41.6-14.7-41.6-43.8c0-39.9,27.3-77.6,71.9-77.6
			c12.6,0,19.3,1.4,26.7,4.4l9.4-49.6c-9.1-3.9-17-4.6-35.2-4.6c-80.6,0-138.2,58.9-138.2,134.4c0,55,36.8,86.7,89.3,86.7
			c20.1,0,36.8-2.4,50-6.8L956.5,244.2z"/>
		<path class="st0" d="M624.2,86.4l42,192c0.9,4.8,0.9,7.4-1.3,10.4c-7.8,14.3-19.9,26.9-34.2,36.8c-12.1,8.7-26,13.9-36,16.9
			l13.9,53.3c13.9-2.2,43.3-12.6,68.1-36c28.2-26.4,53.3-65,81.5-121.3L834,86.4h-66l-38.6,93.2c-9.1,23-13.9,36.8-18.6,49.4H710
			c-1.7-13.4-3.9-28.6-6.9-50.3l-13-92.3C690,86.4,624.2,86.4,624.2,86.4z"/>
		<path class="st0" d="M305,56.1c5.2-1.3,13.4-2.2,25.1-2.2c24.3,0,44.6,9.1,44.6,37.3c0,29-24.7,53.3-62.4,53.3
			c-10.4,0-17.3-0.9-23.8-2.2L305,56.1L305,56.1z M197.9,298.4H259l20-105.3c6.5,0.9,15.2,1.7,25.6,1.7c35.5,0,69.3-8.2,93.2-26.9
			c23-17.8,39.9-45.5,39.9-82.4c0-28.2-12.1-48.5-31.6-62C384.7,8.4,354.4,4.1,328.4,4.1c-40.4,0-58.1,2-95.4,14l-8,40.8l18.6-2
			L197.9,298.4z"/>
		<path class="st0" d="M536.6,217.2c-0.8,3.9-2,7.8-3.5,11.3c-7,13.4-22.6,24.3-39.1,24.3c-14.7,0-24.4-8.2-21-25.1
			c5.1-25.6,33.6-33.8,68.2-33.4L536.6,217.2L536.6,217.2z M588.5,294.4c0.1-11.7,3.1-31.2,7.2-51.6l14.6-73.7
			c9.9-49.9-4.4-91.5-75-91.5c-29.4,0-54.5,6-72,12.6L453,138.7c15.6-8.7,40-16,61.7-16c32.5,0,35.4,16,33.2,27.3l-0.6,3
			c-74.9-0.4-129.6,26-140.5,81c-6.7,33.8,12.7,65,55.6,65c25.1,0,48.6-9.1,65.8-26h1.3l-0.3,21.2L588.5,294.4L588.5,294.4z"/>
	</g>
</g>
</svg>
